<?xml version="1.0" standalone="no"?>
<!DOCTYPE svg PUBLIC "-//W3C//DTD SVG 20010904//EN"
 "http://www.w3.org/TR/2001/REC-SVG-20010904/DTD/svg10.dtd">
<svg version="1.0" xmlns="http://www.w3.org/2000/svg"
 width="460.000000pt" height="460.000000pt" viewBox="0 0 460.000000 460.000000"
 preserveAspectRatio="xMidYMid meet">
<metadata>
Created by potrace 1.14, written by Peter Selinger 2001-2017
</metadata>
<g transform="translate(0.000000,460.000000) scale(0.100000,-0.100000)"
fill="#000000" stroke="none">
<path d="M2129 4596 c-2 -2 -36 -6 -74 -10 -257 -24 -566 -117 -811 -245 -500
-262 -888 -695 -1089 -1215 -54 -141 -106 -328 -121 -441 -3 -22 -7 -45 -9
-52 -31 -96 -25 -584 9 -740 4 -15 9 -41 12 -58 3 -16 12 -57 21 -90 8 -33 16
-64 17 -70 18 -88 110 -319 182 -454 57 -108 123 -213 136 -219 5 -2 8 -8 8
-14 0 -23 161 -218 264 -320 353 -350 774 -566 1261 -648 93 -16 154 -18 390
-16 154 2 291 5 305 8 14 3 48 8 75 12 181 28 447 116 638 213 91 45 251 142
255 154 2 5 8 9 13 9 8 0 111 72 129 90 3 3 39 34 80 70 312 272 541 616 673
1010 14 41 28 89 33 105 4 17 8 35 10 40 2 6 15 64 30 130 25 112 27 139 30
415 2 162 0 315 -5 340 -5 25 -11 63 -14 85 -24 172 -98 404 -195 605 -123
257 -273 466 -477 661 -119 114 -147 137 -260 217 -324 230 -649 358 -1065
418 -47 6 -445 15 -451 10z"/>
</g>
</svg>
